<svg xmlns="http://www.w3.org/2000/svg" width="26" height="26" viewBox="0 0 26 26">
  <path id="Icon_material-shopping-cart" data-name="Icon material-shopping-cart" d="M9.3,23.8a2.6,2.6,0,1,0,2.6,2.6A2.6,2.6,0,0,0,9.3,23.8ZM1.5,3V5.6H4.1l4.68,9.867L7.025,18.652A2.513,2.513,0,0,0,6.7,19.9a2.608,2.608,0,0,0,2.6,2.6H24.9V19.9H9.846a.322.322,0,0,1-.325-.325l.039-.156L10.73,17.3h9.685a2.588,2.588,0,0,0,2.275-1.339l4.654-8.437A1.27,1.27,0,0,0,27.5,6.9a1.3,1.3,0,0,0-1.3-1.3H6.973L5.751,3ZM22.3,23.8a2.6,2.6,0,1,0,2.6,2.6A2.6,2.6,0,0,0,22.3,23.8Z" transform="translate(-1.5 -3)" fill="#ebd35c"/>
</svg>
