<svg xmlns="http://www.w3.org/2000/svg" xmlns:xlink="http://www.w3.org/1999/xlink" width="1963.492" height="325.556" viewBox="0 0 1963.492 325.556">
  <defs>
    <filter id="Soustraction_22" x="0" y="0" width="1963.492" height="129.378" filterUnits="userSpaceOnUse">
      <feOffset dx="2" dy="2" input="SourceAlpha"/>
      <feGaussianBlur stdDeviation="6" result="blur"/>
      <feFlood flood-opacity="0.161"/>
      <feComposite operator="in" in2="blur"/>
      <feComposite in="SourceGraphic"/>
    </filter>
  </defs>
  <g id="Groupe_234" data-name="Groupe 234" transform="translate(259.871 -7184.444)">
    <path id="Soustraction_23" data-name="Soustraction 23" d="M1965.622-2820.83H38.135v-229.99l373.826-35.265c52.348-1.924,104.276-3.725,154.342-5.354,135.391-4.4,265-7.815,385.227-10.136,64.555-1.245,127.7-2.2,187.685-2.84,62.676-.667,123.582-1,181.026-1,70.133,0,137.238.5,199.451,1.5,82.261,1.314,162.688,3.465,239.048,6.393,71.37,2.737,140.974,6.224,206.881,10.365v266.335Z" transform="translate(-282.005 10330.83)" fill="#486044"/>
    <g id="Groupe_39" data-name="Groupe 39" transform="translate(-243.871 7200.444)">
      <g transform="matrix(1, 0, 0, 1, -16, -16)" filter="url(#Soustraction_22)">
        <path id="Soustraction_22-2" data-name="Soustraction 22" d="M0,93.378l0,0H.006L0,75.16c85.5-8.213,169.883-15.847,250.794-22.69,102.61-8.678,203.08-16.389,298.618-22.919,95.419-6.523,188.467-12.041,276.56-16.4C914,8.792,999.43,5.475,1079.878,3.291S1237.927,0,1310.522,0c66.947,0,131.34.942,191.392,2.8,16.511.511,33.028,1.09,49.091,1.721,60.6,2.378,120.455,5.7,177.906,9.865,54.937,3.984,109.15,8.852,161.133,14.468,12.569,1.358,25.169,2.778,37.448,4.218V63.392c-110.518-11.8-230.426-20.293-356.4-25.24l-.275-.011c-30.368-1.191-61.7-2.2-93.118-3-57.27-1.45-118.977-2.185-183.406-2.185-175.4,0-377.532,5.4-600.775,16.059C481.6,59.136,248.271,74.06,0,93.378Z" transform="translate(16 16)" fill="#ebd35c"/>
      </g>
    </g>
  </g>
</svg>
