<svg xmlns="http://www.w3.org/2000/svg" width="26" height="12" viewBox="0 0 26 12">
  <path id="Icon_ionic-md-key" data-name="Icon ionic-md-key" d="M15.95,14.841a6.831,6.831,0,0,0-6.262-4.154,6.115,6.115,0,0,0-6.312,6,6.227,6.227,0,0,0,6.437,6,6.648,6.648,0,0,0,6.138-4.154h6.425v3.692h4.319V18.534h2.681V14.841Zm-6.1,3.837a2.082,2.082,0,0,1-2.156-1.99A2.082,2.082,0,0,1,9.85,14.7a2.082,2.082,0,0,1,2.156,1.99A2.082,2.082,0,0,1,9.85,18.678Z" transform="translate(-3.375 -10.688)" fill="#ebd35c"/>
</svg>
