<svg xmlns="http://www.w3.org/2000/svg" width="49.607" height="46.417" viewBox="0 0 49.607 46.417">
  <g id="Ellipse_8" data-name="Ellipse 8" transform="translate(13.208 9.426)" fill="#333e31" stroke="#ebd35c" stroke-width="5">
    <ellipse cx="18.2" cy="18.495" rx="18.2" ry="18.495" stroke="none"/>
    <ellipse cx="18.2" cy="18.495" rx="15.7" ry="15.995" fill="none"/>
  </g>
  <g id="Icon_awesome-leaf" data-name="Icon awesome-leaf" transform="translate(1.996 2.002)" fill="#ebd35c">
    <path d="M 29.27680397033691 29.00609016418457 C 28.1739444732666 29.00611877441406 27.18598365783691 28.33954048156738 26.75985527038574 27.30789947509766 C 26.72403526306152 27.22052764892578 25.96101760864258 25.39785194396973 23.92720985412598 23.42376708984375 C 23.09150123596191 24.36449432373047 22.09471321105957 25.17571258544922 20.99933433532715 25.80147933959961 C 19.31099510192871 26.76598930358887 17.4734935760498 27.25503921508789 15.53787422180176 27.25503921508789 C 15.13309478759766 27.25503921508789 14.72024917602539 27.23290061950684 14.31050872802734 27.18923950195313 C 9.985272407531738 26.86541175842285 6.058892726898193 24.75404357910156 3.252554416656494 21.24271011352539 C 0.5127344727516174 17.81461906433105 -0.9961455464363098 13.26754951477051 -0.9961455464363098 8.439119338989258 C -0.9961455464363098 5.548649787902832 -0.396355539560318 2.596579790115356 0.69273442029953 0.1267096698284149 C 0.9995444416999817 -0.56926029920578 1.645464420318604 -1.001660346984863 2.378384351730347 -1.001660346984863 C 3.052523851394653 -1.001660346984863 3.659105062484741 -0.6373288631439209 4.001791477203369 -0.02687599137425423 C 5.518063068389893 2.651523351669312 8.208339691162109 4.25037956237793 11.19866466522217 4.25037956237793 L 15.50436401367188 4.25037956237793 C 21.7537841796875 4.25037956237793 26.83805465698242 9.409929275512695 26.83805465698242 15.75187969207764 C 26.83805465698242 16.1412296295166 26.80115509033203 16.49894905090332 26.76546478271484 16.84490013122559 L 26.75223350524902 16.97389984130859 L 26.60263442993164 18.45097923278809 C 29.34943389892578 20.76224517822266 31.07796669006348 23.41495323181152 31.80385398864746 25.22476959228516 C 32.35990524291992 26.6203498840332 31.69355392456055 28.22102928161621 30.31930351257324 28.79508972167969 C 29.98800468444824 28.93469047546387 29.63630485534668 29.00607872009277 29.27680397033691 29.00609016418457 Z" stroke="none"/>
    <path d="M 2.378376007080078 -0.0016632080078125 C 2.069570541381836 -0.0016632080078125 1.76368522644043 0.1763896942138672 1.607725143432617 0.5301704406738281 C 0.5851249694824219 2.849248886108398 0.00384521484375 5.693408966064453 0.00384521484375 8.439109802246094 C 0.00384521484375 17.86857986450195 5.951093673706055 25.56967926025391 14.40103530883789 26.19321060180664 C 14.78850555419922 26.23506927490234 15.1672306060791 26.25503540039063 15.53787517547607 26.25503540039063 C 19.332275390625 26.25503540039063 22.22574615478516 24.15817642211914 23.81437492370605 21.97072982788086 C 26.55925369262695 24.30621910095215 27.60338401794434 26.72921943664551 27.68411445617676 26.92611885070801 C 27.96070671081543 27.59575653076172 28.59996032714844 28.00608253479004 29.27676582336426 28.00608253479004 C 29.49551582336426 28.00608253479004 29.71824073791504 27.96319770812988 29.9338436126709 27.87234878540039 C 30.81113433837891 27.50589942932129 31.23093414306641 26.48856925964355 30.8757152557373 25.59703063964844 C 29.60553359985352 22.4301700592041 23.86819458007813 14.00162982940674 10.3375244140625 14.00162982940674 C 9.86390495300293 14.00162982940674 9.476385116577148 13.60781955718994 9.476385116577148 13.12650012969971 C 9.476385116577148 12.64517974853516 9.86390495300293 12.25137996673584 10.3375244140625 12.25137996673584 C 17.36658477783203 12.25137996673584 22.32352447509766 14.37355995178223 25.75732421875 16.87313079833984 C 25.79499435424805 16.50119972229004 25.83805465698242 16.13473892211914 25.83805465698242 15.75187969207764 C 25.83805465698242 9.954170227050781 21.20942306518555 5.25037956237793 15.50436401367188 5.25037956237793 L 11.19866371154785 5.25037956237793 C 7.786403656005859 5.25037956237793 4.799324035644531 3.412620544433594 3.130865097045898 0.4645404815673828 C 2.956853866577148 0.153106689453125 2.666347503662109 -0.0016632080078125 2.378376007080078 -0.0016632080078125 M 2.378374099731445 -2.001659393310547 C 3.403644561767578 -2.001659393310547 4.359235763549805 -1.432699203491211 4.873743057250977 -0.5164833068847656 C 6.210468292236328 1.842405319213867 8.57453727722168 3.25037956237793 11.19866371154785 3.25037956237793 L 15.50436401367188 3.25037956237793 C 22.30518341064453 3.25037956237793 27.83805465698242 8.858530044555664 27.83805465698242 15.75187969207764 C 27.83805465698242 16.19266891479492 27.79668426513672 16.59370994567871 27.76018524169922 16.94752883911133 L 27.74714469909668 17.07465934753418 L 27.65029525756836 18.0309009552002 C 30.98896026611328 20.96591377258301 32.36518478393555 23.93801689147949 32.73197555541992 24.85251045227051 C 33.09934616088867 25.7745304107666 33.0927734375 26.78282928466797 32.71516418457031 27.69591903686523 C 32.33422470092773 28.61706161499023 31.62063407897949 29.33492660522461 30.70573806762695 29.71739196777344 C 30.24942970275879 29.9089412689209 29.76865768432617 30.00608062744141 29.27676391601563 30.00608062744141 C 27.76755523681641 30.00608062744141 26.41681480407715 29.0968189239502 25.83559417724609 27.68964004516602 L 25.8345947265625 27.68724060058594 L 25.83361434936523 27.68482971191406 C 25.82716751098633 27.66932678222656 25.28580284118652 26.39183807373047 23.9226016998291 24.8644962310791 C 23.18957138061523 25.55942153930664 22.37141799926758 26.16930961608887 21.49537467956543 26.66977882385254 C 19.65405464172363 27.7216796875 17.64966583251953 28.25503921508789 15.53787422180176 28.25503921508789 C 15.10310363769531 28.25503921508789 14.66006660461426 28.2315731048584 14.2204704284668 28.18529319763184 C 9.621400833129883 27.83648872375488 5.449714660644531 25.59355926513672 2.471384048461914 21.86703872680664 C -0.4095554351806641 18.26237869262695 -1.996156692504883 13.49357986450195 -1.996156692504883 8.439109802246094 C -1.996156692504883 5.412790298461914 -1.366174697875977 2.31743049621582 -0.2222652435302734 -0.2767601013183594 C 0.2396335601806641 -1.324529647827148 1.260475158691406 -2.001659393310547 2.378374099731445 -2.001659393310547 Z" stroke="none" fill="#333e31"/>
  </g>
  <g id="Ellipse_9" data-name="Ellipse 9" transform="translate(28.374 24.839)" fill="#ebd35c" stroke="#333e31" stroke-width="2">
    <ellipse cx="3.539" cy="3.596" rx="3.539" ry="3.596" stroke="none"/>
    <ellipse cx="3.539" cy="3.596" rx="4.539" ry="4.596" fill="none"/>
  </g>
</svg>
