<svg xmlns="http://www.w3.org/2000/svg" width="213.085" height="47.228" viewBox="0 0 213.085 47.228">
  <g id="Groupe_1" data-name="Groupe 1" transform="translate(-76.915 -21.772)">
    <text id="thornbury" transform="translate(133 27)" fill="#eaeef3" font-size="32" font-family="Freude"><tspan x="0" y="24">thornbury</tspan></text>
    <text id="record_store" data-name="record store" transform="translate(133 50)" fill="#eaeef3" font-size="16" font-family="UrbaneRounded-Light, Urbane Rounded" font-weight="300"><tspan x="0" y="16">record store</tspan></text>
    <g id="Groupe_20" data-name="Groupe 20" transform="translate(47.691 21.275)">
      <g id="Ellipse_8" data-name="Ellipse 8" transform="translate(42.309 9.725)" fill="#333e31" stroke="#ebd35c" stroke-width="5">
        <circle cx="18" cy="18" r="18" stroke="none"/>
        <circle cx="18" cy="18" r="15.5" fill="none"/>
      </g>
      <g id="Icon_awesome-leaf" data-name="Icon awesome-leaf" transform="translate(31.22 2.499)" fill="#ebd35c">
        <path d="M 28.95571136474609 28.25625228881836 C 27.86300086975098 28.25628280639648 26.88276100158691 27.60312271118164 26.45844078063965 26.59224128723145 C 26.4231014251709 26.5074405670166 25.67112350463867 24.74001502990723 23.66497611999512 22.82330703735352 C 22.8377742767334 23.73892593383789 21.85177803039551 24.52827453613281 20.76844024658203 25.13725280761719 C 19.09852027893066 26.07596206665039 17.28139114379883 26.55198287963867 15.36752033233643 26.55208206176758 C 14.96744060516357 26.55210113525391 14.5592212677002 26.53055953979492 14.15388107299805 26.48805046081543 C 9.875552177429199 26.17286109924316 5.990876197814941 24.11662292480469 3.21328067779541 20.69679260253906 C 0.4987907409667969 17.35465240478516 -0.9961492419242859 12.92120170593262 -0.9961492419242859 8.213131904602051 C -0.9961492419242859 5.394381999969482 -0.4017492532730103 2.515572071075439 0.6775707602500916 0.1070020422339439 C 0.9839207530021667 -0.5768179297447205 1.625670790672302 -1.001657962799072 2.352340698242188 -1.001657962799072 C 3.020263671875 -1.001657962799072 3.622482538223267 -0.6442530155181885 3.964136838912964 -0.0452718585729599 C 5.461088180541992 2.556387662887573 8.119631767272949 4.109772205352783 11.07587051391602 4.109772205352783 L 15.3343505859375 4.109772205352783 C 21.52126121520996 4.109772205352783 26.55467987060547 9.143192291259766 26.55467987060547 15.33011245727539 C 26.55467987060547 15.71126174926758 26.5180606842041 16.0605525970459 26.48264122009277 16.3983325958252 L 26.46957015991211 16.52375221252441 L 26.32366943359375 17.94119834899902 C 29.03671836853027 20.19101333618164 30.744873046875 22.7721061706543 31.46312141418457 24.53424263000488 C 32.02041244506836 25.91059112548828 31.35726165771484 27.48725128173828 29.98573112487793 28.05101203918457 C 29.65826988220215 28.18679237365723 29.31077003479004 28.2562427520752 28.95571136474609 28.25625228881836 Z" stroke="none"/>
        <path d="M 2.352331161499023 -0.0016632080078125 C 2.046911239624023 -0.0016632080078125 1.744379043579102 0.1716270446777344 1.590129852294922 0.5159320831298828 C 0.5787410736083984 2.772932052612305 0.003850936889648438 5.54094123840332 0.003850936889648438 8.213132858276367 C 0.003850936889648438 17.39015197753906 5.885860443115234 24.88507270812988 14.24311065673828 25.49190139770508 C 14.62633323669434 25.53264045715332 15.00091075897217 25.55207252502441 15.3674898147583 25.55207252502441 C 19.12026977539063 25.55207252502441 21.98198890686035 23.5113582611084 23.55319023132324 21.38247299194336 C 26.26797103881836 23.65544128417969 27.30065155029297 26.01357269287109 27.38050079345703 26.20520210266113 C 27.65405464172363 26.85690498352051 28.28630447387695 27.25625228881836 28.95568466186523 27.25625228881836 C 29.17203712463379 27.25625228881836 29.39231109619141 27.21451759338379 29.60555076599121 27.12610244750977 C 30.47321128845215 26.76945114135742 30.8884105682373 25.77936172485352 30.53709030151367 24.91169166564941 C 29.28083992004395 21.82961273193359 23.60643005371094 13.62672233581543 10.22418022155762 13.62672233581543 C 9.75575065612793 13.62672233581543 9.372489929199219 13.24346160888672 9.372489929199219 12.77503204345703 C 9.372489929199219 12.30660247802734 9.75575065612793 11.92333221435547 10.22418022155762 11.92333221435547 C 17.17613983154297 11.92333221435547 22.07870101928711 13.98869228363037 25.47483062744141 16.42135238647461 C 25.5120906829834 16.05938339233398 25.55467987060547 15.70273208618164 25.55467987060547 15.33011245727539 C 25.55467987060547 9.687631607055664 20.97682189941406 5.109771728515625 15.3343505859375 5.109771728515625 L 11.07587051391602 5.109771728515625 C 7.701030731201172 5.109771728515625 4.746721267700195 3.321212768554688 3.096561431884766 0.4520626068115234 C 2.924461364746094 0.1489620208740234 2.637144088745117 -0.0016632080078125 2.352331161499023 -0.0016632080078125 M 2.352331161499023 -2.001657485961914 C 3.368474960327148 -2.001657485961914 4.318147659301758 -1.442302703857422 4.832426071166992 -0.5413150787353516 C 6.149051666259766 1.744955062866211 8.482725143432617 3.109771728515625 11.07587051391602 3.109771728515625 L 15.3343505859375 3.109771728515625 C 22.07266044616699 3.109771728515625 27.55467987060547 8.591791152954102 27.55467987060547 15.33011245727539 C 27.55467987060547 15.76354217529297 27.51351165771484 16.15618133544922 27.4771900177002 16.50260162353516 L 27.46432113647461 16.62614250183105 L 27.37257385253906 17.51742935180664 C 30.66603469848633 20.37441062927246 32.02591323852539 23.26563835144043 32.38915252685547 24.15679168701172 C 33.1528434753418 26.04289627075195 32.24552536010742 28.20178985595703 30.36831474304199 28.97493553161621 C 29.91694259643555 29.16159629821777 29.44167137145996 29.25625228881836 28.95568084716797 29.25625228881836 C 27.45913124084473 29.25625228881836 26.11697006225586 28.36248207092285 25.5363712310791 26.97927284240723 L 25.53536033630371 26.97687149047852 L 25.53436088562012 26.97446250915527 C 25.52812767028809 26.95973205566406 24.99653625488281 25.72768974304199 23.65983200073242 24.25215339660645 C 22.93416213989258 24.92856979370117 22.12487030029297 25.52198219299316 21.25849151611328 26.0090217590332 C 19.43709945678711 27.03291130065918 17.45508193969727 27.55207252502441 15.36749076843262 27.55207252502441 C 14.9377613067627 27.55207252502441 14.49988174438477 27.52925682067871 14.06544303894043 27.4842357635498 C 9.515401840209961 27.1448917388916 5.386951446533203 24.95921516418457 2.437061309814453 21.32724189758301 C -0.4217395782470703 17.80744171142578 -1.996150970458984 13.15009212493896 -1.996150970458984 8.213132858276367 C -1.996150970458984 5.256502151489258 -1.370689392089844 2.232461929321289 -0.2349987030029297 -0.3019275665283203 C 0.23468017578125 -1.350297927856445 1.226110458374023 -2.001657485961914 2.352331161499023 -2.001657485961914 Z" stroke="none" fill="#333e31"/>
      </g>
      <g id="Ellipse_9" data-name="Ellipse 9" transform="translate(57.309 24.725)" fill="#ebd35c" stroke="#333e31" stroke-width="2">
        <circle cx="3.5" cy="3.5" r="3.5" stroke="none"/>
        <circle cx="3.5" cy="3.5" r="4.5" fill="none"/>
      </g>
    </g>
  </g>
</svg>
