<svg xmlns="http://www.w3.org/2000/svg" width="200.213" height="45.228" viewBox="0 0 200.213 45.228">
  <g id="Groupe_240" data-name="Groupe 240" transform="translate(-76.915 -21.772)">
    <path id="Tracé_58" data-name="Tracé 58" d="M3.52,8.1C3.52,8.832,1.7,7.968.7,9.568a2.222,2.222,0,0,0-.256,1.12,2.3,2.3,0,0,0,2.56,2.3c0,1.728-.128,3.488-.128,5.216,0,3.3.768,6.24,4.832,6.24,2.944,0,4.9-1.152,4.9-3.232,0-.9-.544-1.856-1.472-1.856-.9,0-1.632.544-2.464.544-1.472,0-1.28-2.112-1.312-3.552a20.241,20.241,0,0,1,.192-3.2c.1-.192.512-.192.736-.192.7,0,1.12.1,1.856.1a2.5,2.5,0,0,0,2.72-2.592,2.011,2.011,0,0,0-2.24-2.08c-.7,0-1.44.16-2.112.16-.352,0-.64,0-.64-.416,0-.768.288-1.568.288-2.368A1.706,1.706,0,0,0,6.208,3.936c-1.792,0-2.848.736-2.848,2.624C3.36,7.1,3.52,7.648,3.52,8.1ZM17.536,1.7c-1.888,0-2.656,1.024-2.656,3.36,0,2.56.576,3.52.576,7.168,0,2.976-.512,6.112-.512,8.608,0,1.984.544,3.456,2.752,3.456a2.591,2.591,0,0,0,2.528-2.848c0-1.28-.384-2.624-.384-4.1,0-2.112.032-4.9,2.88-4.9a2.628,2.628,0,0,1,2.752,2.784c0,2.656-.32,3.712-.32,5.856,0,1.7.768,3.232,2.592,3.232,2.112,0,2.56-1.792,2.56-3.616,0-1.088-.32-1.824-.32-5.792,0-3.616-1.248-7.072-5.248-7.072a6.078,6.078,0,0,0-4.352,1.344l-.32.288c0-1.344.192-4.384.192-4.7C20.256,2.912,19.424,1.7,17.536,1.7ZM47.648,16c0-5.248-2.912-8.256-7.84-8.256-5.472,0-7.84,3.744-7.84,8.64,0,4.96,3.008,8.1,7.936,8.1C44.992,24.48,47.648,20.512,47.648,16Zm-7.936,4.256c-2.208,0-3.3-1.952-3.3-3.968,0-2.144.864-4.48,3.232-4.48,2.592,0,3.488,2.144,3.488,4.384C43.136,18.3,41.92,20.256,39.712,20.256Zm10.5-5.152c0,2.08-.288,4.192-.288,6.272a2.578,2.578,0,0,0,2.912,2.912c1.6,0,2.368-1.056,2.368-2.656,0-.9-.416-2.944-.416-4.8a2.879,2.879,0,0,1,.9-2.4c1.216-1.28,2.784-.416,4.128-1.28a2.924,2.924,0,0,0,1.248-2.56A2.436,2.436,0,0,0,58.464,8c-2.048,0-2.72,1.376-3.456,2.848-.064.064-.1.128-.128.128-.064,0-.064-.16-.064-.192-.192-1.7-.736-3.008-2.688-3.008-1.472,0-2.592.768-2.592,2.3C49.536,11.744,50.208,12.416,50.208,15.1ZM65.184,7.552a2.608,2.608,0,0,0-2.88,2.912c0,1.472.672,2.944.672,4.352,0,1.824-.288,3.968-.288,5.824,0,1.952.16,3.584,2.592,3.584,2.112,0,2.5-1.664,2.5-3.456,0-.864-.288-2.208-.288-4.768,0-1.856,1.152-3.264,2.752-3.264,2.368,0,2.848,1.28,2.848,3.584,0,1.6-.256,3.168-.256,4.768,0,1.5.48,3.168,2.432,3.168,2.144,0,2.688-1.728,2.688-3.52,0-1.12-.256-2.176-.256-3.3,0-1.024.064-2.464.064-3.488,0-3.36-1.824-6.048-5.472-6.048-1.728,0-3.9.7-4.832,2.4C67.456,8.768,66.912,7.552,65.184,7.552ZM85.728,4.864c0-1.824-.7-3.04-2.656-3.04-1.728,0-2.592,1.312-2.592,2.976,0,2.208.288,5.152.288,7.36,0,7.168-.384,8.544-.384,9.664a2.289,2.289,0,0,0,2.272,2.464,2.554,2.554,0,0,0,2.336-1.728c.768,1.28,2.624,1.728,4,1.728,4.832,0,7.424-4,7.424-8.9,0-3.968-2.272-7.488-6.5-7.488a7.108,7.108,0,0,0-4.48,1.312C85.5,7.84,85.728,5.792,85.728,4.864ZM88,20.1c-2.4,0-3.072-2.272-3.072-4.256,0-2.336,1.216-3.936,3.648-3.936,2.048,0,3.04,1.632,3.04,3.552C91.616,17.632,90.912,20.1,88,20.1Zm15.328-9.824A2.258,2.258,0,0,0,100.768,8c-1.792,0-2.528.96-2.528,2.816,0,1.248.256,2.624.256,3.872,0,.768-.1,1.984-.1,2.784,0,3.488,1.088,6.912,5.344,6.912,3.072,0,3.68-1.888,4.288-1.888.352,0,.672,1.92,2.72,1.92,1.376,0,2.624-.7,2.624-2.176,0-1.28-.64-3.136-.64-5.952,0-1.824.416-3.552.416-5.344,0-1.728-.576-3.04-2.528-3.04s-2.464,1.152-2.464,2.912c0,1.408.256,2.72.256,4.128,0,1.76-.352,4.864-2.88,4.864-1.984,0-2.656-1.664-2.656-3.744C102.88,13.248,103.328,12.384,103.328,10.272ZM116.32,15.1c0,2.08-.288,4.192-.288,6.272a2.578,2.578,0,0,0,2.912,2.912c1.6,0,2.368-1.056,2.368-2.656,0-.9-.416-2.944-.416-4.8a2.88,2.88,0,0,1,.9-2.4c1.216-1.28,2.784-.416,4.128-1.28a2.924,2.924,0,0,0,1.248-2.56A2.436,2.436,0,0,0,124.576,8c-2.048,0-2.72,1.376-3.456,2.848-.064.064-.1.128-.128.128-.064,0-.064-.16-.064-.192-.192-1.7-.736-3.008-2.688-3.008-1.472,0-2.592.768-2.592,2.3C115.648,11.744,116.32,12.416,116.32,15.1ZM131.1,8.064a2.317,2.317,0,0,0-2.56,2.624c0,3.488,5.568,10.4,5.568,13.056,0,.992-.48,1.76-1.472,1.76-.576,0-1.216-.576-1.792-.576a2.077,2.077,0,0,0-2.272,2.336c0,1.952,2.016,2.848,3.68,2.848,3.9,0,5.568-2.336,7.04-5.792.736-1.76,1.376-3.68,2.048-5.5.9-2.624,2.784-5.952,2.784-8.256A2.4,2.4,0,0,0,141.408,8c-1.792,0-2.368,1.92-2.624,3.328-.288,1.728-.672,3.552-1.056,5.248-.1.512-.544,2.528-.9,2.528-.256,0-.512-.512-.544-.608a46.966,46.966,0,0,1-1.824-5.952C133.952,10.784,133.536,8.064,131.1,8.064Z" transform="translate(133 27)" fill="#eaeef3"/>
    <path id="Tracé_59" data-name="Tracé 59" d="M5.082,6.773A2.507,2.507,0,0,0,2.344,8.524V7.387a.494.494,0,0,0-.555-.538H1.641a.5.5,0,0,0-.555.555v8.041A.5.5,0,0,0,1.641,16h.147a.5.5,0,0,0,.555-.555V11.272c0-2.112.764-3.407,2.609-3.292.366.01.58-.133.62-.482l.016-.113a.487.487,0,0,0-.507-.612Zm5.384,9.4a4.291,4.291,0,0,0,3.852-1.909c.2-.307.118-.522-.257-.636l-.147-.048c-.307-.09-.494.07-.72.292a3.215,3.215,0,0,1-2.711,1.2,3.18,3.18,0,0,1-3.4-3.414h7.148a.5.5,0,0,0,.555-.555,4.192,4.192,0,0,0-4.4-4.431,4.438,4.438,0,0,0-4.557,4.752,4.42,4.42,0,0,0,4.644,4.752Zm3.1-5.569H7.128A3.084,3.084,0,0,1,10.4,7.734a2.915,2.915,0,0,1,3.166,2.873Zm7.216,5.569a4.128,4.128,0,0,0,3.907-2.159c.164-.323.034-.513-.35-.641l-.1-.035c-.3-.109-.521.036-.711.317a3.038,3.038,0,0,1-2.706,1.4c-1.909,0-3.246-1.49-3.246-3.631s1.337-3.639,3.246-3.639A3.018,3.018,0,0,1,23.544,9.19a.592.592,0,0,0,.72.317l.119-.035a.429.429,0,0,0,.294-.691,4.1,4.1,0,0,0-3.9-2.108,4.443,4.443,0,0,0-4.461,4.752,4.444,4.444,0,0,0,4.461,4.752Zm10.017.032a4.387,4.387,0,0,0,4.535-4.784,4.391,4.391,0,0,0-4.558-4.752,4.374,4.374,0,0,0-4.535,4.752A4.389,4.389,0,0,0,30.8,16.208Zm0-1.121c-2,0-3.3-1.387-3.3-3.663,0-2.253,1.3-3.64,3.277-3.64s3.3,1.4,3.3,3.64c0,2.261-1.306,3.663-3.276,3.663ZM41.178,6.773A2.507,2.507,0,0,0,38.44,8.524V7.387a.494.494,0,0,0-.555-.538h-.147a.5.5,0,0,0-.555.555v8.041a.5.5,0,0,0,.555.555h.147a.5.5,0,0,0,.555-.555V11.272c0-2.112.764-3.407,2.609-3.292.366.01.58-.133.62-.482l.016-.113a.487.487,0,0,0-.507-.612Zm5.082,9.435a3.561,3.561,0,0,0,3.491-2.278v1.5a.5.5,0,0,0,.555.555h.147a.5.5,0,0,0,.555-.555v-11a.5.5,0,0,0-.555-.555h-.147a.5.5,0,0,0-.555.555V8.959a3.562,3.562,0,0,0-3.515-2.287c-2.257,0-4.3,1.533-4.3,4.752,0,3.242,2.055,4.784,4.327,4.784Zm.24-1.121c-2,0-3.309-1.387-3.309-3.663,0-2.253,1.308-3.64,3.277-3.64,1.994,0,3.309,1.4,3.309,3.64C49.777,13.685,48.478,15.087,46.5,15.087ZM61.46,16.16c2.281,0,3.852-1.113,3.852-2.775,0-3.574-6.339-1.794-6.339-4.19,0-.89.947-1.421,2.374-1.421a3.663,3.663,0,0,1,2.409.906c.277.2.447.3.746.182l.115-.048a.405.405,0,0,0,.176-.71,4.8,4.8,0,0,0-3.462-1.416c-2.026,0-3.6.98-3.6,2.552,0,3.492,6.313,1.762,6.313,4.17,0,1.01-.982,1.628-2.586,1.628a3.758,3.758,0,0,1-2.894-1.176c-.293-.283-.482-.3-.737-.21l-.123.04a.424.424,0,0,0-.242.711,5.009,5.009,0,0,0,4,1.754Zm9.147-.04a3.869,3.869,0,0,0,.464-.023c.4-.045.546-.249.5-.606-.039-.313-.263-.434-.612-.432-1.262.012-2.3-.193-2.3-2.843V7.87h2.312a.484.484,0,0,0,.555-.515c0-.331-.189-.506-.555-.506H68.665V5.488c0-.389-.229-.564-.613-.481l-.164.033a.545.545,0,0,0-.489.6V6.849h-.886a.442.442,0,0,0-.486.506c0,.342.2.515.555.515H67.4v4.408c0,2.815.961,3.842,3.209,3.842Zm6.2.088a4.387,4.387,0,0,0,4.535-4.784,4.551,4.551,0,1,0-9.093,0A4.389,4.389,0,0,0,76.812,16.208Zm0-1.121c-2,0-3.3-1.387-3.3-3.663,0-2.253,1.3-3.64,3.277-3.64s3.3,1.4,3.3,3.64c0,2.261-1.306,3.663-3.276,3.663ZM87.194,6.773a2.507,2.507,0,0,0-2.738,1.751V7.387a.494.494,0,0,0-.555-.538h-.147A.5.5,0,0,0,83.2,7.4v8.041a.5.5,0,0,0,.555.555H83.9a.5.5,0,0,0,.555-.555V11.272c0-2.112.764-3.407,2.609-3.292.366.01.58-.133.62-.482l.016-.113a.487.487,0,0,0-.507-.612Zm5.384,9.4a4.291,4.291,0,0,0,3.852-1.909c.2-.307.118-.522-.257-.636l-.147-.048c-.307-.09-.494.07-.72.292a3.215,3.215,0,0,1-2.711,1.2,3.18,3.18,0,0,1-3.4-3.414h7.148A.5.5,0,0,0,96.9,11.1a4.192,4.192,0,0,0-4.4-4.431,4.438,4.438,0,0,0-4.557,4.752,4.42,4.42,0,0,0,4.644,4.752Zm3.1-5.569H89.24a3.084,3.084,0,0,1,3.268-2.873,2.915,2.915,0,0,1,3.166,2.873Z" transform="translate(133 50)" fill="#eaeef3"/>
    <g id="Groupe_20" data-name="Groupe 20" transform="translate(47.691 21.275)">
      <g id="Ellipse_8" data-name="Ellipse 8" transform="translate(42.309 9.725)" fill="#333e31" stroke="#ebd35c" stroke-width="5">
        <circle cx="18" cy="18" r="18" stroke="none"/>
        <circle cx="18" cy="18" r="15.5" fill="none"/>
      </g>
      <g id="Icon_awesome-leaf" data-name="Icon awesome-leaf" transform="translate(31.22 2.499)" fill="#ebd35c">
        <path d="M 28.95571136474609 28.25625228881836 C 27.86300086975098 28.25628280639648 26.88276100158691 27.60312271118164 26.45844078063965 26.59224128723145 C 26.4231014251709 26.5074405670166 25.67112350463867 24.74001502990723 23.66497611999512 22.82330703735352 C 22.8377742767334 23.73892593383789 21.85177803039551 24.52827453613281 20.76844024658203 25.13725280761719 C 19.09852027893066 26.07596206665039 17.28139114379883 26.55198287963867 15.36752033233643 26.55208206176758 C 14.96744060516357 26.55210113525391 14.5592212677002 26.53055953979492 14.15388107299805 26.48805046081543 C 9.875552177429199 26.17286109924316 5.990876197814941 24.11662292480469 3.21328067779541 20.69679260253906 C 0.4987907409667969 17.35465240478516 -0.9961492419242859 12.92120170593262 -0.9961492419242859 8.213131904602051 C -0.9961492419242859 5.394381999969482 -0.4017492532730103 2.515572071075439 0.6775707602500916 0.1070020422339439 C 0.9839207530021667 -0.5768179297447205 1.625670790672302 -1.001657962799072 2.352340698242188 -1.001657962799072 C 3.020263671875 -1.001657962799072 3.622482538223267 -0.6442530155181885 3.964136838912964 -0.0452718585729599 C 5.461088180541992 2.556387662887573 8.119631767272949 4.109772205352783 11.07587051391602 4.109772205352783 L 15.3343505859375 4.109772205352783 C 21.52126121520996 4.109772205352783 26.55467987060547 9.143192291259766 26.55467987060547 15.33011245727539 C 26.55467987060547 15.71126174926758 26.5180606842041 16.0605525970459 26.48264122009277 16.3983325958252 L 26.46957015991211 16.52375221252441 L 26.32366943359375 17.94119834899902 C 29.03671836853027 20.19101333618164 30.744873046875 22.7721061706543 31.46312141418457 24.53424263000488 C 32.02041244506836 25.91059112548828 31.35726165771484 27.48725128173828 29.98573112487793 28.05101203918457 C 29.65826988220215 28.18679237365723 29.31077003479004 28.2562427520752 28.95571136474609 28.25625228881836 Z" stroke="none"/>
        <path d="M 2.352331161499023 -0.0016632080078125 C 2.046911239624023 -0.0016632080078125 1.744379043579102 0.1716270446777344 1.590129852294922 0.5159320831298828 C 0.5787410736083984 2.772932052612305 0.003850936889648438 5.54094123840332 0.003850936889648438 8.213132858276367 C 0.003850936889648438 17.39015197753906 5.885860443115234 24.88507270812988 14.24311065673828 25.49190139770508 C 14.62633323669434 25.53264045715332 15.00091075897217 25.55207252502441 15.3674898147583 25.55207252502441 C 19.12026977539063 25.55207252502441 21.98198890686035 23.5113582611084 23.55319023132324 21.38247299194336 C 26.26797103881836 23.65544128417969 27.30065155029297 26.01357269287109 27.38050079345703 26.20520210266113 C 27.65405464172363 26.85690498352051 28.28630447387695 27.25625228881836 28.95568466186523 27.25625228881836 C 29.17203712463379 27.25625228881836 29.39231109619141 27.21451759338379 29.60555076599121 27.12610244750977 C 30.47321128845215 26.76945114135742 30.8884105682373 25.77936172485352 30.53709030151367 24.91169166564941 C 29.28083992004395 21.82961273193359 23.60643005371094 13.62672233581543 10.22418022155762 13.62672233581543 C 9.75575065612793 13.62672233581543 9.372489929199219 13.24346160888672 9.372489929199219 12.77503204345703 C 9.372489929199219 12.30660247802734 9.75575065612793 11.92333221435547 10.22418022155762 11.92333221435547 C 17.17613983154297 11.92333221435547 22.07870101928711 13.98869228363037 25.47483062744141 16.42135238647461 C 25.5120906829834 16.05938339233398 25.55467987060547 15.70273208618164 25.55467987060547 15.33011245727539 C 25.55467987060547 9.687631607055664 20.97682189941406 5.109771728515625 15.3343505859375 5.109771728515625 L 11.07587051391602 5.109771728515625 C 7.701030731201172 5.109771728515625 4.746721267700195 3.321212768554688 3.096561431884766 0.4520626068115234 C 2.924461364746094 0.1489620208740234 2.637144088745117 -0.0016632080078125 2.352331161499023 -0.0016632080078125 M 2.352331161499023 -2.001657485961914 C 3.368474960327148 -2.001657485961914 4.318147659301758 -1.442302703857422 4.832426071166992 -0.5413150787353516 C 6.149051666259766 1.744955062866211 8.482725143432617 3.109771728515625 11.07587051391602 3.109771728515625 L 15.3343505859375 3.109771728515625 C 22.07266044616699 3.109771728515625 27.55467987060547 8.591791152954102 27.55467987060547 15.33011245727539 C 27.55467987060547 15.76354217529297 27.51351165771484 16.15618133544922 27.4771900177002 16.50260162353516 L 27.46432113647461 16.62614250183105 L 27.37257385253906 17.51742935180664 C 30.66603469848633 20.37441062927246 32.02591323852539 23.26563835144043 32.38915252685547 24.15679168701172 C 33.1528434753418 26.04289627075195 32.24552536010742 28.20178985595703 30.36831474304199 28.97493553161621 C 29.91694259643555 29.16159629821777 29.44167137145996 29.25625228881836 28.95568084716797 29.25625228881836 C 27.45913124084473 29.25625228881836 26.11697006225586 28.36248207092285 25.5363712310791 26.97927284240723 L 25.53536033630371 26.97687149047852 L 25.53436088562012 26.97446250915527 C 25.52812767028809 26.95973205566406 24.99653625488281 25.72768974304199 23.65983200073242 24.25215339660645 C 22.93416213989258 24.92856979370117 22.12487030029297 25.52198219299316 21.25849151611328 26.0090217590332 C 19.43709945678711 27.03291130065918 17.45508193969727 27.55207252502441 15.36749076843262 27.55207252502441 C 14.9377613067627 27.55207252502441 14.49988174438477 27.52925682067871 14.06544303894043 27.4842357635498 C 9.515401840209961 27.1448917388916 5.386951446533203 24.95921516418457 2.437061309814453 21.32724189758301 C -0.4217395782470703 17.80744171142578 -1.996150970458984 13.15009212493896 -1.996150970458984 8.213132858276367 C -1.996150970458984 5.256502151489258 -1.370689392089844 2.232461929321289 -0.2349987030029297 -0.3019275665283203 C 0.23468017578125 -1.350297927856445 1.226110458374023 -2.001657485961914 2.352331161499023 -2.001657485961914 Z" stroke="none" fill="#333e31"/>
      </g>
      <g id="Ellipse_9" data-name="Ellipse 9" transform="translate(57.309 24.725)" fill="#ebd35c" stroke="#333e31" stroke-width="2">
        <circle cx="3.5" cy="3.5" r="3.5" stroke="none"/>
        <circle cx="3.5" cy="3.5" r="4.5" fill="none"/>
      </g>
    </g>
  </g>
</svg>
