<svg xmlns="http://www.w3.org/2000/svg" xmlns:xlink="http://www.w3.org/1999/xlink" width="699.939" height="270.406" viewBox="0 0 699.939 270.406">
  <defs>
    <filter id="Soustraction_15" x="0" y="0" width="699.939" height="270.406" filterUnits="userSpaceOnUse">
      <feOffset dx="-2" dy="-2" input="SourceAlpha"/>
      <feGaussianBlur stdDeviation="6" result="blur"/>
      <feFlood flood-opacity="0.161"/>
      <feComposite operator="in" in2="blur"/>
      <feComposite in="SourceGraphic"/>
    </filter>
  </defs>
  <g id="Groupe_51" data-name="Groupe 51" transform="translate(115.958 127.198)">
    <path id="Tracé_10" data-name="Tracé 10" d="M1035-71.7s44.607,133.671,196.836,145.947,395.8-117.3,395.8-117.3L1168.915-94.886Z" transform="translate(-1078.176 201.614) rotate(-8)" fill="#486044"/>
    <g transform="matrix(1, 0, 0, 1, -115.96, -127.2)" filter="url(#Soustraction_15)">
      <path id="Soustraction_15-2" data-name="Soustraction 15" d="M-827.262,306a222.605,222.605,0,0,1-30.022-2.022,215.654,215.654,0,0,1-27.9-5.714,218.815,218.815,0,0,1-25.8-8.879,230.52,230.52,0,0,1-23.734-11.516c-26.786-14.933-51.932-35.756-74.74-61.89a366.714,366.714,0,0,1-25.609-33.055c-6.427-9.334-12.5-19.035-18.04-28.835a285.046,285.046,0,0,1-14.187-28.131l144.013-54.364L-403.358,74.8l-.04.039c-1.717,1.573-17.493,15.957-42.307,36.463l-459.476,12.461-129.385,41.6a164.085,164.085,0,0,0,11.352,18.372c4.467,6.4,9.384,12.736,14.615,18.832a245.612,245.612,0,0,0,20.951,21.588A226.153,226.153,0,0,0-925.6,264.575c28.031,12.193,58.576,18.377,90.787,18.38h.046c5.057,0,10.251-.156,15.436-.463,129.472-7.669,309.78-125.663,361.958-161.644-24.473,19.824-49.324,38.738-73.863,56.218-31.651,22.547-62.6,42.562-91.986,59.489-76.563,44.1-142.467,67.417-195.881,69.3C-821.821,305.951-824.565,306-827.262,306Z" transform="translate(1087.3 -51.59)" fill="#ebd35c"/>
    </g>
  </g>
</svg>
