<svg xmlns="http://www.w3.org/2000/svg" xmlns:xlink="http://www.w3.org/1999/xlink" width="1013.529" height="710.637" viewBox="0 0 1013.529 710.637">
  <defs>
    <filter id="Soustraction_25" x="0" y="0" width="1013.529" height="710.637" filterUnits="userSpaceOnUse">
      <feOffset dx="9" dy="2" input="SourceAlpha"/>
      <feGaussianBlur stdDeviation="16.5" result="blur"/>
      <feFlood flood-opacity="0.188"/>
      <feComposite operator="in" in2="blur"/>
      <feComposite in="SourceGraphic"/>
    </filter>
  </defs>
  <g id="Groupe_142" data-name="Groupe 142" transform="translate(-1020.486 -309.863)">
    <path id="Tracé_35" data-name="Tracé 35" d="M1911.859,3485.363s-639.989,58.536-761.892,143.678-121.9,303.321,20.779,340.571,717.563,101.107,741.113,103.236,36.017-7.45,36.017-7.45l-6.926-117.072Z" transform="translate(27.639 -3116.079)" fill="#486044"/>
    <g transform="matrix(1, 0, 0, 1, 1020.49, 309.86)" filter="url(#Soustraction_25)">
      <path id="Soustraction_25-2" data-name="Soustraction 25" d="M884.33,611.637c-2.27,0-4.605-.109-6.939-.322-6.175-.563-47.868-5.144-108.962-12.268-53.7-6.262-136.686-16.157-227.075-27.738-97.652-12.512-181.8-24.15-250.109-34.591-40.193-6.143-75.177-11.921-103.979-17.172-31.6-5.76-56.521-11.027-74.083-15.654a151.4,151.4,0,0,1-20.335-6.916,141.643,141.643,0,0,1-18.281-9.341,139.214,139.214,0,0,1-30.458-25.066,153.256,153.256,0,0,1-22.416-32.1A180.909,180.909,0,0,1,7.2,393.124a210.047,210.047,0,0,1-5.926-32.094,232.107,232.107,0,0,1-1.1-33.385,245.94,245.94,0,0,1,3.673-33.8,248.875,248.875,0,0,1,8.386-33.329,241.452,241.452,0,0,1,13.042-31.979A226.992,226.992,0,0,1,42.915,198.79a202.087,202.087,0,0,1,48.84-49.284c7.656-5.4,17.594-10.874,29.538-16.279,11.423-5.17,24.985-10.412,40.31-15.582,14.612-4.928,31.21-9.92,49.332-14.835,17.212-4.669,36.257-9.393,56.606-14.041C337.918,72.694,426.8,56.8,531.711,41.529c41.218-6,85.039-11.916,130.244-17.585,36.168-4.535,73.3-8.924,110.357-13.043C834.509,3.988,875.664.159,877.386,0h.006l.578,9.292c-4.667.436-47.423,4.453-110.946,11.593-36.235,4.073-72.422,8.4-107.557,12.854C615.992,39.253,573.907,45,534.38,50.819c-99.818,14.7-184.33,29.973-251.186,45.405-83.152,19.194-139.2,38.709-166.573,58.006a195.993,195.993,0,0,0-47.364,47.8A226.058,226.058,0,0,0,39.5,261.888c-13.951,42.673-15.685,88.344-4.883,128.6,14.961,55.75,51.462,93.9,102.779,107.419,32.636,8.6,90.734,19.309,172.681,31.834,66.253,10.127,147.859,21.413,242.55,33.546,87.648,11.23,168.131,20.827,220.213,26.9,59.241,6.908,99.677,11.351,105.669,11.9,2.264.207,4.528.311,6.73.311a60.277,60.277,0,0,0,19.8-3.158,39.218,39.218,0,0,0,8.975-4.311l.506,8.638a34.67,34.67,0,0,1-7.68,4.037,55.112,55.112,0,0,1-9.453,2.775,66.347,66.347,0,0,1-13.065,1.261h0Z" transform="translate(40.5 47.5)" fill="#ebd35c"/>
    </g>
  </g>
</svg>
